<mxfile host="app.diagrams.net" modified="2020-07-23T10:25:37.289Z" agent="5.0 (Macintosh; Intel Mac OS X 10_14_6) AppleWebKit/537.36 (KHTML, like Gecko) Chrome/83.0.4103.116 Safari/537.36" etag="ioQ-yBWs2kMtLaWYdcjm" version="13.5.1" type="github">
  <diagram id="l56CjqGkB6kQWcgfxgll" name="Page-1">
    <mxGraphModel dx="888" dy="574" grid="0" gridSize="10" guides="1" tooltips="1" connect="1" arrows="1" fold="1" page="0" pageScale="1" pageWidth="850" pageHeight="1100" math="0" shadow="0">
      <root>
        <mxCell id="0" />
        <mxCell id="1" parent="0" />
        <mxCell id="2-9A5GTCEi-F7P2OKU_l-25" value="" style="fontColor=#0066CC;verticalAlign=top;verticalLabelPosition=bottom;labelPosition=center;align=center;html=1;outlineConnect=0;fillColor=#CCCCCC;strokeColor=#6881B3;gradientColor=none;gradientDirection=north;strokeWidth=2;shape=mxgraph.networks.laptop;" vertex="1" parent="1">
          <mxGeometry x="38" y="642" width="156" height="106.5" as="geometry" />
        </mxCell>
        <mxCell id="2-9A5GTCEi-F7P2OKU_l-26" value="" style="fontColor=#0066CC;verticalAlign=top;verticalLabelPosition=bottom;labelPosition=center;align=center;html=1;outlineConnect=0;fillColor=#CCCCCC;strokeColor=#6881B3;gradientColor=none;gradientDirection=north;strokeWidth=2;shape=mxgraph.networks.wireless_hub;" vertex="1" parent="1">
          <mxGeometry x="464" y="636.25" width="136" height="118" as="geometry" />
        </mxCell>
        <mxCell id="2-9A5GTCEi-F7P2OKU_l-28" value="" style="points=[];aspect=fixed;html=1;align=center;shadow=0;dashed=0;image;image=img/lib/allied_telesis/computer_and_terminals/Server_Desktop.svg;" vertex="1" parent="1">
          <mxGeometry x="481" y="334" width="107.3" height="136" as="geometry" />
        </mxCell>
        <mxCell id="2-9A5GTCEi-F7P2OKU_l-39" value="" style="endArrow=classic;html=1;strokeWidth=3;fillColor=#f5f5f5;strokeColor=#B8B8B8;dashed=1;" edge="1" parent="1">
          <mxGeometry width="50" height="50" relative="1" as="geometry">
            <mxPoint x="266" y="674" as="sourcePoint" />
            <mxPoint x="419" y="674" as="targetPoint" />
          </mxGeometry>
        </mxCell>
        <mxCell id="2-9A5GTCEi-F7P2OKU_l-40" value="" style="endArrow=classic;html=1;strokeWidth=3;fillColor=#f5f5f5;strokeColor=#B8B8B8;" edge="1" parent="1">
          <mxGeometry width="50" height="50" relative="1" as="geometry">
            <mxPoint x="546" y="608" as="sourcePoint" />
            <mxPoint x="546" y="506" as="targetPoint" />
          </mxGeometry>
        </mxCell>
        <mxCell id="2-9A5GTCEi-F7P2OKU_l-41" value="1" style="ellipse;whiteSpace=wrap;html=1;aspect=fixed;fillColor=#fff2cc;strokeColor=#d6b656;direction=south;" vertex="1" parent="1">
          <mxGeometry x="275" y="647" width="23" height="23" as="geometry" />
        </mxCell>
        <mxCell id="2-9A5GTCEi-F7P2OKU_l-52" value="连接wifi" style="text;html=1;strokeColor=none;fillColor=none;align=center;verticalAlign=middle;whiteSpace=wrap;rounded=0;" vertex="1" parent="1">
          <mxGeometry x="293" y="650" width="64" height="20" as="geometry" />
        </mxCell>
        <mxCell id="2-9A5GTCEi-F7P2OKU_l-53" value="" style="endArrow=classic;html=1;strokeWidth=3;fillColor=#f5f5f5;strokeColor=#B8B8B8;" edge="1" parent="1">
          <mxGeometry width="50" height="50" relative="1" as="geometry">
            <mxPoint x="266" y="711" as="sourcePoint" />
            <mxPoint x="420" y="711" as="targetPoint" />
          </mxGeometry>
        </mxCell>
        <mxCell id="2-9A5GTCEi-F7P2OKU_l-56" value="2" style="ellipse;whiteSpace=wrap;html=1;aspect=fixed;fillColor=#fff2cc;strokeColor=#d6b656;direction=south;" vertex="1" parent="1">
          <mxGeometry x="275" y="683" width="23" height="23" as="geometry" />
        </mxCell>
        <mxCell id="2-9A5GTCEi-F7P2OKU_l-57" value="发送CPD请求（GET）" style="text;html=1;strokeColor=none;fillColor=none;align=center;verticalAlign=middle;whiteSpace=wrap;rounded=0;" vertex="1" parent="1">
          <mxGeometry x="303" y="685" width="125" height="20" as="geometry" />
        </mxCell>
        <mxCell id="2-9A5GTCEi-F7P2OKU_l-61" value="" style="endArrow=classic;html=1;strokeWidth=3;fillColor=#f5f5f5;strokeColor=#B8B8B8;" edge="1" parent="1">
          <mxGeometry width="50" height="50" relative="1" as="geometry">
            <mxPoint x="265.5" y="730" as="sourcePoint" />
            <mxPoint x="419" y="730" as="targetPoint" />
            <Array as="points">
              <mxPoint x="342" y="765" />
            </Array>
          </mxGeometry>
        </mxCell>
        <mxCell id="2-9A5GTCEi-F7P2OKU_l-62" value="5" style="ellipse;whiteSpace=wrap;html=1;aspect=fixed;fillColor=#fff2cc;strokeColor=#d6b656;direction=south;" vertex="1" parent="1">
          <mxGeometry x="275" y="769" width="23" height="23" as="geometry" />
        </mxCell>
        <mxCell id="2-9A5GTCEi-F7P2OKU_l-63" value="发送认证请求（GET）" style="text;html=1;strokeColor=none;fillColor=none;align=center;verticalAlign=middle;whiteSpace=wrap;rounded=0;" vertex="1" parent="1">
          <mxGeometry x="300" y="770.5" width="126" height="20" as="geometry" />
        </mxCell>
        <mxCell id="2-9A5GTCEi-F7P2OKU_l-66" value="" style="fontColor=#0066CC;verticalAlign=top;verticalLabelPosition=bottom;labelPosition=center;align=center;html=1;outlineConnect=0;fillColor=#CCCCCC;strokeColor=#6881B3;gradientColor=none;gradientDirection=north;strokeWidth=2;shape=mxgraph.networks.laptop;" vertex="1" parent="1">
          <mxGeometry x="21" y="1010" width="156" height="106.5" as="geometry" />
        </mxCell>
        <mxCell id="2-9A5GTCEi-F7P2OKU_l-67" value="" style="fontColor=#0066CC;verticalAlign=top;verticalLabelPosition=bottom;labelPosition=center;align=center;html=1;outlineConnect=0;fillColor=#CCCCCC;strokeColor=#6881B3;gradientColor=none;gradientDirection=north;strokeWidth=2;shape=mxgraph.networks.wireless_hub;" vertex="1" parent="1">
          <mxGeometry x="447" y="1004.25" width="136" height="118" as="geometry" />
        </mxCell>
        <mxCell id="2-9A5GTCEi-F7P2OKU_l-68" value="" style="endArrow=classic;html=1;strokeWidth=3;fillColor=#f5f5f5;strokeColor=#B8B8B8;dashed=1;" edge="1" parent="1">
          <mxGeometry width="50" height="50" relative="1" as="geometry">
            <mxPoint x="251" y="1011" as="sourcePoint" />
            <mxPoint x="404" y="1011" as="targetPoint" />
          </mxGeometry>
        </mxCell>
        <mxCell id="2-9A5GTCEi-F7P2OKU_l-69" value="1" style="ellipse;whiteSpace=wrap;html=1;aspect=fixed;fillColor=#fff2cc;strokeColor=#d6b656;direction=south;" vertex="1" parent="1">
          <mxGeometry x="260" y="984" width="23" height="23" as="geometry" />
        </mxCell>
        <mxCell id="2-9A5GTCEi-F7P2OKU_l-70" value="连接wifi" style="text;html=1;strokeColor=none;fillColor=none;align=center;verticalAlign=middle;whiteSpace=wrap;rounded=0;" vertex="1" parent="1">
          <mxGeometry x="278" y="987" width="64" height="20" as="geometry" />
        </mxCell>
        <mxCell id="2-9A5GTCEi-F7P2OKU_l-71" value="" style="endArrow=classic;html=1;strokeWidth=3;fillColor=#f5f5f5;strokeColor=#B8B8B8;" edge="1" parent="1">
          <mxGeometry width="50" height="50" relative="1" as="geometry">
            <mxPoint x="251" y="1048" as="sourcePoint" />
            <mxPoint x="405" y="1048" as="targetPoint" />
          </mxGeometry>
        </mxCell>
        <mxCell id="2-9A5GTCEi-F7P2OKU_l-72" value="2" style="ellipse;whiteSpace=wrap;html=1;aspect=fixed;fillColor=#fff2cc;strokeColor=#d6b656;direction=south;" vertex="1" parent="1">
          <mxGeometry x="260" y="1020" width="23" height="23" as="geometry" />
        </mxCell>
        <mxCell id="2-9A5GTCEi-F7P2OKU_l-73" value="发送CPD请求（GET）" style="text;html=1;strokeColor=none;fillColor=none;align=center;verticalAlign=middle;whiteSpace=wrap;rounded=0;" vertex="1" parent="1">
          <mxGeometry x="288" y="1022" width="125" height="20" as="geometry" />
        </mxCell>
        <mxCell id="2-9A5GTCEi-F7P2OKU_l-74" value="" style="endArrow=classic;html=1;strokeWidth=3;fillColor=#f5f5f5;strokeColor=#B8B8B8;" edge="1" parent="1">
          <mxGeometry width="50" height="50" relative="1" as="geometry">
            <mxPoint x="406" y="1059" as="sourcePoint" />
            <mxPoint x="244" y="1059" as="targetPoint" />
          </mxGeometry>
        </mxCell>
        <mxCell id="2-9A5GTCEi-F7P2OKU_l-75" value="3" style="ellipse;whiteSpace=wrap;html=1;aspect=fixed;fillColor=#fff2cc;strokeColor=#d6b656;direction=south;" vertex="1" parent="1">
          <mxGeometry x="260" y="1062" width="23" height="23" as="geometry" />
        </mxCell>
        <mxCell id="2-9A5GTCEi-F7P2OKU_l-76" value="返回认证初始页" style="text;html=1;strokeColor=none;fillColor=none;align=center;verticalAlign=middle;whiteSpace=wrap;rounded=0;" vertex="1" parent="1">
          <mxGeometry x="283" y="1063.5" width="89" height="20" as="geometry" />
        </mxCell>
        <mxCell id="2-9A5GTCEi-F7P2OKU_l-77" value="" style="endArrow=classic;html=1;strokeWidth=3;fillColor=#f5f5f5;strokeColor=#B8B8B8;" edge="1" parent="1">
          <mxGeometry width="50" height="50" relative="1" as="geometry">
            <mxPoint x="248.5" y="1098" as="sourcePoint" />
            <mxPoint x="401.9999999999998" y="1098" as="targetPoint" />
          </mxGeometry>
        </mxCell>
        <mxCell id="2-9A5GTCEi-F7P2OKU_l-78" value="4" style="ellipse;whiteSpace=wrap;html=1;aspect=fixed;fillColor=#fff2cc;strokeColor=#d6b656;direction=south;" vertex="1" parent="1">
          <mxGeometry x="260" y="1106" width="23" height="23" as="geometry" />
        </mxCell>
        <mxCell id="2-9A5GTCEi-F7P2OKU_l-79" value="发送认证请求（GET）" style="text;html=1;strokeColor=none;fillColor=none;align=center;verticalAlign=middle;whiteSpace=wrap;rounded=0;" vertex="1" parent="1">
          <mxGeometry x="285" y="1107.5" width="126" height="20" as="geometry" />
        </mxCell>
        <mxCell id="2-9A5GTCEi-F7P2OKU_l-80" value="3" style="ellipse;whiteSpace=wrap;html=1;aspect=fixed;fillColor=#fff2cc;strokeColor=#d6b656;direction=south;" vertex="1" parent="1">
          <mxGeometry x="565.3" y="542" width="23" height="23" as="geometry" />
        </mxCell>
        <mxCell id="2-9A5GTCEi-F7P2OKU_l-81" value="外部认证服务器" style="text;html=1;strokeColor=none;fillColor=none;align=center;verticalAlign=middle;whiteSpace=wrap;rounded=0;" vertex="1" parent="1">
          <mxGeometry x="590" y="543.5" width="102" height="20" as="geometry" />
        </mxCell>
        <mxCell id="2-9A5GTCEi-F7P2OKU_l-83" value="" style="endArrow=classic;html=1;strokeWidth=3;fillColor=#f5f5f5;strokeColor=#B8B8B8;" edge="1" parent="1">
          <mxGeometry width="50" height="50" relative="1" as="geometry">
            <mxPoint x="458" y="463" as="sourcePoint" />
            <mxPoint x="232" y="576" as="targetPoint" />
          </mxGeometry>
        </mxCell>
        <mxCell id="2-9A5GTCEi-F7P2OKU_l-84" value="4" style="ellipse;whiteSpace=wrap;html=1;aspect=fixed;fillColor=#fff2cc;strokeColor=#d6b656;direction=south;" vertex="1" parent="1">
          <mxGeometry x="234" y="472" width="23" height="23" as="geometry" />
        </mxCell>
        <mxCell id="2-9A5GTCEi-F7P2OKU_l-85" value="返回自定义认证页面" style="text;html=1;strokeColor=none;fillColor=none;align=center;verticalAlign=middle;whiteSpace=wrap;rounded=0;" vertex="1" parent="1">
          <mxGeometry x="260" y="473.5" width="122" height="20" as="geometry" />
        </mxCell>
      </root>
    </mxGraphModel>
  </diagram>
</mxfile>
